<svg width="3572" height="788" viewBox="0 0 3572 788" fill="none" xmlns="http://www.w3.org/2000/svg">
<path d="M3571.69 161.292C3571.61 191.606 3548.03 215.205 3517.57 215.092C3487.08 215.017 3463.67 191.268 3463.75 160.954C3463.84 130.639 3487.42 107.039 3517.89 107.152C3548.37 107.227 3571.8 130.976 3571.69 161.292ZM3472.17 160.99C3472.1 186.804 3491.47 207.327 3517.59 207.402C3543.7 207.477 3563.21 187.104 3563.28 161.253C3563.36 135.442 3543.98 114.918 3517.87 114.843C3491.73 114.769 3472.25 135.14 3472.17 160.99ZM3505.73 192.281L3498.04 192.244L3498.23 129.85L3522.18 129.927C3536.25 130.002 3542.46 136.116 3542.44 147.259C3542.4 158.289 3535.14 163.205 3526.7 164.63L3545.2 192.394L3536.2 192.357L3518.73 164.592L3505.81 164.556L3505.73 192.281ZM3515.99 158.065C3525.43 158.103 3534.71 157.84 3534.75 147.259C3534.77 138.556 3527.53 136.492 3519.97 136.454L3505.9 136.416L3505.84 158.026L3515.99 158.065Z" fill="white"/>
<path d="M413.837 565.309C413.837 612.187 424.661 632.035 430.974 641.941H314.666C307.453 631.136 303.844 612.187 303.844 600.481C261.466 634.737 211.876 652.763 155.072 652.763C68.5182 652.763 0 597.78 0 509.424C0 420.15 71.2286 380.473 138.846 366.967L184.833 357.944C224.501 349.821 275.892 340.817 303.844 330.894V317.368C303.844 272.289 265.077 259.665 217.288 259.665C153.272 259.665 132.534 278.611 132.534 328.191L22.5384 323.671C22.5384 216.386 117.206 174.911 217.288 174.911C315.567 174.911 413.837 194.758 413.837 324.572V565.309ZM303.844 413.829C289.417 421.049 271.389 426.472 251.552 430.074L191.147 442.679C149.67 450.803 115.407 462.526 115.407 505.803C115.407 540.077 146.96 562.608 186.635 562.608C238.026 562.608 303.844 537.357 303.844 478.753V413.829Z" fill="white"/>
<path d="M770.817 597.781H769.017C741.966 630.235 706.801 652.764 640.984 652.764C523.777 652.764 442.633 545.481 442.633 413.829C442.633 282.214 523.777 174.912 640.984 174.912C695.078 174.912 737.454 193.858 770.817 224.51V0H880.812V641.941H770.817V597.781ZM558.041 413.829C558.94 479.654 583.281 551.784 666.225 551.784C749.179 551.784 773.517 479.654 774.428 413.829C773.517 348.021 749.179 275.892 666.225 275.892C583.281 275.892 558.94 348.021 558.041 413.829Z" fill="white"/>
<path d="M1030.42 439.978C1032.23 507.605 1089.03 551.783 1148.53 551.783C1235.09 551.783 1269.35 502.202 1280.17 486.876L1373.03 540.978C1338.77 593.26 1272.96 652.763 1148.53 652.763C1000.67 652.763 915.01 549.981 915.01 413.829C915.01 277.691 1000.67 174.911 1148.53 174.911C1300.91 174.911 1367.62 276.792 1367.62 439.978H1030.42ZM1252.22 355.224C1252.22 330.894 1222.46 265.067 1148.53 265.067C1084.52 265.067 1042.14 306.544 1030.42 355.224H1252.22Z" fill="white"/>
<path d="M1400.03 185.734H1510.03V224.51H1511.83C1545.2 193.857 1587.56 174.911 1641.67 174.911C1757.07 174.911 1838.23 282.213 1838.23 413.829C1838.23 545.48 1757.07 652.763 1639.86 652.763C1574.05 652.763 1538.88 630.235 1510.03 597.78V788H1400.03V185.734ZM1722.81 413.829C1721.91 348.021 1697.57 275.891 1614.62 275.891C1531.67 275.891 1507.32 348.021 1506.42 413.829C1507.32 479.654 1531.67 551.783 1614.62 551.783C1697.57 551.783 1721.91 479.654 1722.81 413.829Z" fill="white"/>
<path d="M1872.42 185.734H1982.41V248.841H1984.21C2010.36 196.558 2068.06 186.917 2132.07 186.917V298.722C2057.24 298.722 1982.41 321.869 1982.41 421.05V641.941H1872.42V185.734Z" fill="white"/>
<path d="M2166.28 0H2276.29V111.805H2166.28V0ZM2166.28 185.734H2276.29V641.941H2166.28V185.734Z" fill="white"/>
<path d="M2315.35 185.734H2425.35V230.812C2458.71 196.558 2498.38 174.911 2556.98 174.911C2611.09 174.911 2668.79 192.956 2691.32 243.437C2724.67 199.259 2770.67 174.911 2831.98 174.911C2931.16 174.911 2991.56 222.708 2991.56 320.97V641.941H2881.58V365.165C2881.58 312.866 2858.13 275.891 2806.73 275.891C2745.42 275.891 2708.47 336.315 2708.47 401.221V641.941H2598.46V365.165C2598.46 312.866 2575.01 275.891 2521.81 275.891C2462.3 275.891 2425.35 336.315 2425.35 401.221V641.941H2315.34L2315.35 185.734Z" fill="white"/>
<path d="M3492.77 413.829C3492.77 549.981 3407.11 652.763 3259.25 652.763C3111.38 652.763 3025.74 549.981 3025.74 413.829C3025.74 277.691 3111.38 174.911 3259.25 174.911C3407.11 174.911 3492.77 277.691 3492.77 413.829ZM3141.15 413.829C3141.15 485.074 3180.82 551.783 3259.25 551.783C3337.69 551.783 3377.36 485.074 3377.36 413.829C3377.36 342.617 3337.69 275.891 3259.25 275.891C3180.82 275.891 3141.15 342.617 3141.15 413.829Z" fill="white"/>
</svg>
